<svg width="30" height="30" viewBox="0 0 30 30" fill="none" xmlns="http://www.w3.org/2000/svg">
<g clip-path="url(#clip0_8732_1099)">
<path d="M23.6422 18.0708H6.35767V19.1234H23.6422V18.0708Z" fill="#1B1464"/>
<path d="M5.949 18.1664C6.18708 18.1664 6.3813 18.3591 6.3813 18.5987C6.3813 18.8384 6.18865 19.031 5.949 19.031C5.70935 19.031 5.51669 18.8384 5.51669 18.5987C5.51669 18.3591 5.70935 18.1664 5.949 18.1664ZM5.949 17.1123C5.1298 17.1123 4.46411 17.778 4.46411 18.5971C4.46411 19.4163 5.1298 20.082 5.949 20.082C6.76819 20.082 7.43388 19.4163 7.43388 18.5971C7.43388 17.778 6.76819 17.1123 5.949 17.1123Z" fill="#1B1464"/>
<path d="M24.051 18.1664C24.2891 18.1664 24.4834 18.3591 24.4834 18.5987C24.4834 18.8384 24.2907 19.031 24.051 19.031C23.8114 19.031 23.6187 18.8384 23.6187 18.5987C23.6187 18.3591 23.8114 18.1664 24.051 18.1664ZM24.051 17.1123C23.2319 17.1123 22.5662 17.778 22.5662 18.5971C22.5662 19.4163 23.2319 20.082 24.051 20.082C24.8702 20.082 25.5359 19.4163 25.5359 18.5971C25.5359 17.778 24.8702 17.1123 24.051 17.1123Z" fill="#1B1464"/>
<path d="M23.6422 11.273H6.35767V12.3255H23.6422V11.273Z" fill="#1B1464"/>
<path d="M5.949 11.3685C6.18708 11.3685 6.3813 11.5612 6.3813 11.8008C6.3813 12.0405 6.18865 12.2331 5.949 12.2331C5.70935 12.2331 5.51669 12.0405 5.51669 11.8008C5.51669 11.5612 5.70935 11.3685 5.949 11.3685ZM5.949 10.3144C5.1298 10.3144 4.46411 10.9801 4.46411 11.7992C4.46411 12.6184 5.1298 13.2841 5.949 13.2841C6.76819 13.2841 7.43388 12.6184 7.43388 11.7992C7.43388 10.9801 6.76819 10.3144 5.949 10.3144Z" fill="#1B1464"/>
<path d="M24.051 11.3685C24.2891 11.3685 24.4834 11.5612 24.4834 11.8008C24.4834 12.0405 24.2907 12.2331 24.051 12.2331C23.8114 12.2331 23.6187 12.0405 23.6187 11.8008C23.6187 11.5612 23.8114 11.3685 24.051 11.3685ZM24.051 10.3144C23.2319 10.3144 22.5662 10.9801 22.5662 11.7992C22.5662 12.6184 23.2319 13.2841 24.051 13.2841C24.8702 13.2841 25.5359 12.6184 25.5359 11.7992C25.5359 10.9801 24.8702 10.3144 24.051 10.3144Z" fill="#1B1464"/>
<path d="M26.9832 8.05258C27.2213 8.05258 27.4155 8.24524 27.4155 8.48488C27.4155 8.72453 27.2228 8.91719 26.9832 8.91719C26.7435 8.91719 26.5509 8.72453 26.5509 8.48488C26.5509 8.24524 26.7435 8.05258 26.9832 8.05258ZM26.9832 7C26.164 7 25.4983 7.66569 25.4983 8.48488C25.4983 9.30408 26.164 9.96977 26.9832 9.96977C27.8024 9.96977 28.4681 9.30408 28.4681 8.48488C28.4681 7.66569 27.8024 7 26.9832 7Z" fill="#1B1464"/>
<path d="M15.0009 14.6719H1.8938V15.7245H15.0009V14.6719Z" fill="#1B1464"/>
<path d="M1.48488 14.7674C1.72297 14.7674 1.91719 14.9601 1.91719 15.1998C1.91719 15.4394 1.72453 15.6321 1.48488 15.6321C1.24524 15.6321 1.05258 15.4394 1.05258 15.1998C1.05258 14.9601 1.24524 14.7674 1.48488 14.7674ZM1.48488 13.7133C0.665692 13.7133 0 14.379 0 15.1982C0 16.0174 0.665692 16.6831 1.48488 16.6831C2.30408 16.6831 2.96977 16.0174 2.96977 15.1982C2.96977 14.379 2.30408 13.7133 1.48488 13.7133Z" fill="#1B1464"/>
<path d="M28.1078 14.6719H15.0007V15.7245H28.1078V14.6719Z" fill="#1B1464"/>
<path d="M28.5152 14.7674C28.7532 14.7674 28.9475 14.9601 28.9475 15.1998C28.9475 15.4394 28.7548 15.6321 28.5152 15.6321C28.2755 15.6321 28.0828 15.4394 28.0828 15.1998C28.0828 14.9601 28.2755 14.7674 28.5152 14.7674ZM28.5152 13.7133C27.696 13.7133 27.0303 14.379 27.0303 15.1982C27.0303 16.0174 27.696 16.6831 28.5152 16.6831C29.3344 16.6831 30 16.0174 30 15.1982C30 14.379 29.3344 13.7133 28.5152 13.7133Z" fill="#1B1464"/>
<path d="M12.1406 7.97739C10.485 7.52158 8.81685 7.43387 7.21919 7.66255C6.79158 7.72364 6.60832 8.22956 6.89496 8.55223C9.26482 11.2228 10.4082 14.8943 9.77858 18.5971H20.9794C20.5581 13.7008 17.156 9.35733 12.1406 7.97582V7.97739Z" fill="#0071BC"/>
<path d="M21.5527 19.125H9.15364L9.25859 18.511C9.84753 15.0463 8.84351 11.5439 6.50027 8.9031C6.2387 8.60863 6.16038 8.19668 6.29508 7.82859C6.42979 7.46207 6.75402 7.19893 7.14404 7.14254C8.86387 6.89506 10.5915 7.00627 12.28 7.47147C17.3471 8.86707 21.0531 13.3202 21.5026 18.5549L21.5512 19.1266L21.5527 19.125ZM10.3863 18.0709H20.3905C19.7687 13.5238 16.459 9.71133 11.9997 8.48489C10.4521 8.05884 8.86857 7.95703 7.29284 8.18415C7.27874 8.19355 7.28501 8.19981 7.28814 8.20451C9.70499 10.9299 10.8171 14.4949 10.3848 18.0724L10.3863 18.0709Z" fill="#1B1464"/>
<path d="M19.7044 11.8008H18.6519V9.80217C18.6519 8.78562 19.4789 7.96016 20.4939 7.96016H26.5744V9.01274H20.4939C20.0584 9.01274 19.7044 9.36673 19.7044 9.80217V11.8008Z" fill="#1B1464"/>
<path d="M3.64162 21.4808C3.87971 21.4808 4.07393 21.6734 4.07393 21.9131C4.07393 22.1527 3.88127 22.3454 3.64162 22.3454C3.40197 22.3454 3.20931 22.1527 3.20931 21.9131C3.20931 21.6734 3.40197 21.4808 3.64162 21.4808ZM3.64162 20.4282C2.82243 20.4282 2.15674 21.0939 2.15674 21.9131C2.15674 22.7323 2.82243 23.398 3.64162 23.398C4.46082 23.398 5.12651 22.7323 5.12651 21.9131C5.12651 21.0939 4.46082 20.4282 3.64162 20.4282Z" fill="#1B1464"/>
<path d="M12.4383 22.4394H4.05054V21.3868H12.4383C12.8737 21.3868 13.2277 21.0328 13.2277 20.5974V18.5987H14.2803V20.5974C14.2803 21.6139 13.4532 22.4394 12.4383 22.4394Z" fill="#1B1464"/>
</g>
<defs>
<clipPath id="clip0_8732_1099">
<rect width="30" height="30" fill="white"/>
</clipPath>
</defs>
</svg>
