<svg width="29" height="30" viewBox="0 0 29 30" fill="none" xmlns="http://www.w3.org/2000/svg">
<g clip-path="url(#clip0_8732_1116)">
<path d="M1.39379 17.4118C2.38455 17.4118 2.80437 17.8652 2.80437 18.8056C2.80437 19.746 2.38455 20.1994 1.39379 20.1994C0.403023 20.1994 0 19.746 0 18.8056C0 17.8652 0.419815 17.4118 1.39379 17.4118ZM0.251889 21.356H2.55248V29.7502H0.251889V21.356Z" fill="#7F00FF"/>
<path d="M8.663 17.1599C10.7453 17.1599 11.9019 17.9996 11.9019 20.6003H9.83639C9.83639 19.6096 9.45016 19.2905 8.71128 19.2905C8.05637 19.2905 7.70373 19.6264 7.70373 20.6675V21.356H11.7319V23.4215H7.70373V29.7502H5.40314V23.4215H3.72388V21.356H5.40314V20.5667C5.40314 18.2997 6.37711 17.1599 8.65881 17.1599H8.663Z" fill="#7F00FF"/>
<path d="M13.8665 27.4328C14.7565 27.4328 15.1428 27.8526 15.1428 28.7091C15.1428 29.5655 14.7565 30.0021 13.8665 30.0021C12.9765 30.0021 12.5735 29.5655 12.5735 28.7091C12.5735 27.8526 12.9597 27.4328 13.8665 27.4328Z" fill="#7F00FF"/>
<path d="M20.464 23.0017C19.6412 23.0017 18.5161 23.0856 18.5161 24.2611H16.4506C16.4506 21.9605 17.9955 21.1062 20.4955 21.1062C23.3649 21.1062 24.7755 21.9123 24.7755 24.7985V29.7502H22.4917V28.6251C22.1559 29.4479 21.3834 30.0021 19.6034 30.0021C17.5715 30.0021 15.9783 29.4479 15.9783 27.3321C15.9783 25.6024 17.3217 24.9475 19.5026 24.7292L22.4896 24.4605V24.427C22.4896 23.1339 21.2973 22.9996 20.4577 22.9996L20.464 23.0017ZM19.9434 26.3077C19.003 26.3917 18.3649 26.6268 18.3649 27.2985C18.3649 27.8359 18.8855 28.1045 19.977 28.1045C21.6395 28.1045 22.4287 27.4496 22.4959 26.8955V26.0558L19.9434 26.3077Z" fill="#4A494A"/>
<path d="M27.4307 17.4118C28.4214 17.4118 28.8412 17.8652 28.8412 18.8056C28.8412 19.746 28.4214 20.1994 27.4307 20.1994C26.4399 20.1994 26.0369 19.746 26.0369 18.8056C26.0369 17.8652 26.4567 17.4118 27.4307 17.4118ZM26.2909 21.356H28.5914V29.7502H26.2909V21.356Z" fill="#4A494A"/>
<path d="M9.60325 0V13.5978H6.82617V0H9.60325ZM15.8186 13.5978H13.0205V4.85726H15.8186V13.5999V13.5978ZM22.0172 13.5978H19.2401V0H22.0172V13.5978Z" fill="#FF7300"/>
</g>
<defs>
<clipPath id="clip0_8732_1116">
<rect width="28.8413" height="30" fill="white"/>
</clipPath>
</defs>
</svg>
