<svg width="30" height="30" viewBox="0 0 30 30" fill="none" xmlns="http://www.w3.org/2000/svg">
<g clip-path="url(#clip0_8732_1126)">
<path d="M6.45705 21.7214C6.75302 21.7214 6.99295 21.4815 6.99295 21.1855C6.99295 20.8895 6.75302 20.6496 6.45705 20.6496C6.16108 20.6496 5.92114 20.8895 5.92114 21.1855C5.92114 21.4815 6.16108 21.7214 6.45705 21.7214Z" fill="#009245"/>
<path d="M10.8096 22.8502C10.5137 22.8502 10.2737 23.0903 10.2737 23.3861C10.2737 23.682 10.5137 23.922 10.8096 23.922C11.1055 23.922 11.3455 23.682 11.3455 23.3861C11.3455 23.0903 11.1055 22.8502 10.8096 22.8502Z" fill="#009245"/>
<path d="M13.7566 22.0612C13.753 21.9852 13.7542 21.9139 13.7542 21.845C13.7542 21.8224 13.7542 21.7998 13.7542 21.7772C13.7542 21.6644 13.7542 21.5503 13.753 21.4374C13.7518 21.1593 13.7495 20.8706 13.7566 20.5842V18.8886C13.6853 18.8161 13.5724 18.8886 13.5724 18.8886H12.8678C11.9718 18.8886 11.2446 19.6158 11.2446 20.5117V22.0505C11.8376 22.2442 12.2594 22.8217 12.2119 23.4895C12.1643 24.1573 11.5975 24.7455 10.9012 24.7895C10.0849 24.8406 9.40518 24.1918 9.40518 23.3873C9.40518 22.7647 9.81276 22.2347 10.376 22.0505V20.5117C10.376 19.1345 11.4918 18.0188 12.869 18.0188H13.7518C13.7518 17.7039 13.7542 17.3795 13.7578 17.0396V16.6879H9.71175C8.15513 16.6879 6.8932 17.9499 6.8932 19.5065V19.8499C7.48614 20.0436 7.90798 20.6211 7.86045 21.2889C7.81292 21.9567 7.24611 22.5449 6.54979 22.5888C5.73346 22.6399 5.05377 21.9911 5.05377 21.1867C5.05377 20.564 5.46135 20.0341 6.02458 19.8499V19.5065C6.02458 17.4698 7.67626 15.8181 9.71294 15.8181H13.7613V15.5151C13.7435 14.9424 13.7423 14.3304 13.7613 13.5331V13.1564H9.71294C7.67626 13.1564 6.02458 11.5047 6.02458 9.46805V9.12464C5.43164 8.93096 5.00981 8.35346 5.05734 7.68566C5.10487 7.01786 5.67167 6.42967 6.36799 6.38571C7.18433 6.33461 7.86401 6.9834 7.86401 7.78785C7.86401 8.4105 7.45644 8.94046 6.8932 9.12464V9.46805C6.8932 11.0247 8.15513 12.2866 9.71175 12.2866H13.759V11.9812C13.753 11.6414 13.7495 11.2992 13.7495 10.9558H12.869C11.4918 10.9558 10.376 9.83998 10.376 8.46278V6.92399C9.78305 6.7303 9.36122 6.15281 9.40875 5.485C9.45628 4.8172 10.0231 4.22901 10.7194 4.18505C11.5357 4.13395 12.2154 4.78274 12.2154 5.5872C12.2154 6.20984 11.8078 6.73981 11.2446 6.92399V8.46278C11.2446 9.35873 11.9718 10.0859 12.8678 10.0859H13.589C13.589 10.0859 13.6924 10.1513 13.7578 10.0859V8.42001C13.7506 6.78021 13.7518 5.15229 13.7542 3.4911C13.6485 3.37941 13.5724 3.25702 13.5059 3.14057C12.964 2.19471 12.1227 1.67425 10.9357 1.5483C10.78 1.53166 10.6255 1.52335 10.4758 1.52335C9.54777 1.52335 8.77065 1.83229 8.09929 2.46801C7.5515 2.98609 7.30672 3.59329 7.34949 4.3217C7.36851 4.65203 7.38989 5.02515 7.14868 5.3234C6.91578 5.60977 6.56405 5.67394 6.22421 5.73573C5.85823 5.80227 5.49818 5.91634 5.15359 6.07438C5.13576 6.0827 5.10368 6.09934 5.07873 6.11359C4.67116 6.34887 4.3836 6.52711 4.07346 6.93706C4.04851 6.97033 4.01761 7.0143 3.9986 7.05232C3.83224 7.37909 3.69084 7.67497 3.64093 7.9851C3.52805 8.68618 3.70748 9.30288 4.20536 9.92553C4.21486 9.93741 4.2315 9.95524 4.24813 9.97425C4.27309 10.0028 4.30517 10.0372 4.33725 10.0764C4.70086 10.5292 4.64858 10.9284 4.58441 11.1269C4.52143 11.3241 4.33131 11.6782 3.7764 11.8315C3.21554 11.9872 2.74617 12.2296 2.34217 12.5718C1.84547 12.9936 1.54365 13.5771 1.49256 14.2128C1.44741 14.776 1.60188 15.3286 1.93103 15.7932C2.23166 15.6411 2.57269 15.5401 2.94818 15.4913C2.99571 15.4854 3.04324 15.4818 3.09077 15.4818C3.61598 15.4818 4.06158 15.8502 4.1507 16.3564C4.19942 16.6368 4.12812 16.9291 3.95463 17.1585C3.78234 17.3866 3.53161 17.5268 3.24881 17.5565C2.52516 17.6302 2.0451 18.4252 2.0249 18.8339C1.98569 19.6312 2.40039 20.2598 3.16444 20.5581C3.43061 20.6615 3.7051 20.7221 4.00573 20.7435C4.45489 20.7743 4.81137 20.9823 4.98367 21.3126C5.21657 21.7582 5.0312 22.1943 4.8993 22.4153C4.46677 23.1414 4.69373 24.0266 5.43996 24.5197C5.76792 24.7372 6.11014 24.862 6.48206 24.9012C6.5997 24.471 6.79101 24.0825 7.05362 23.745C7.2877 23.4444 7.59903 23.278 7.93174 23.278C8.1385 23.278 8.34169 23.3434 8.52112 23.4681C9.00236 23.8032 9.10218 24.4092 8.76352 24.9416C8.17296 25.8696 8.33575 26.8107 9.21031 27.5237C9.72126 27.9396 10.3891 28.1689 11.0889 28.1689C12.1465 28.1689 13.0924 27.6663 13.557 26.8559C13.7043 26.5992 13.7602 26.4067 13.7554 26.169C13.7435 25.5892 13.7483 25.0022 13.7518 24.4354V24.2726L13.753 22.0565L13.7566 22.0612ZM13.7566 22.0612L13.7554 24.2785L10.8133 25.9825C11.0616 25.9825 11.2767 26.1988 11.2731 26.4412C11.2684 26.6895 11.0545 26.8974 10.8073 26.8951C10.5602 26.8927 10.3439 26.6764 10.3475 26.4352C10.351 26.1904 10.5661 25.9813 10.8145 25.9825L13.7566 22.0612ZM8.61737 14.0274C8.86334 14.0238 9.08198 14.2342 9.08911 14.4789C9.09505 14.7213 8.87878 14.9447 8.63519 14.9471C8.38922 14.9495 8.16464 14.7368 8.16345 14.4956C8.16107 14.2496 8.37377 14.031 8.61856 14.0274H8.61737ZM5.68236 14.0274C5.92952 14.0333 6.14103 14.2496 6.13747 14.4944C6.13509 14.738 5.91289 14.9531 5.66929 14.9471C5.42214 14.9412 5.20468 14.7202 5.21181 14.4813C5.21894 14.233 5.43758 14.0227 5.68236 14.0286V14.0274ZM10.8133 2.0842C11.0616 2.0842 11.2767 2.30047 11.2719 2.54287C11.2672 2.79122 11.0533 2.99916 10.8061 2.99679C10.559 2.99441 10.3427 2.77815 10.3463 2.53693C10.3498 2.29215 10.5649 2.08302 10.8133 2.0842Z" fill="#009245"/>
<path d="M10.8096 6.12429C11.1055 6.12429 11.3455 5.88426 11.3455 5.58838C11.3455 5.2925 11.1055 5.05247 10.8096 5.05247C10.5137 5.05247 10.2737 5.2925 10.2737 5.58838C10.2737 5.88426 10.5137 6.12429 10.8096 6.12429Z" fill="#009245"/>
<path d="M6.45705 8.32495C6.75302 8.32495 6.99295 8.08502 6.99295 7.78905C6.99295 7.49308 6.75302 7.25314 6.45705 7.25314C6.16108 7.25314 5.92114 7.49308 5.92114 7.78905C5.92114 8.08502 6.16108 8.32495 6.45705 8.32495Z" fill="#009245"/>
<path d="M11.2444 8.46279V6.92399C11.8077 6.741 12.2152 6.21104 12.2152 5.5872C12.2152 4.81245 11.5843 4.18149 10.8095 4.18149C10.0348 4.18149 9.40381 4.81245 9.40381 5.5872C9.40381 6.20985 9.81138 6.73981 10.3746 6.92399V8.46279C10.3746 9.83761 11.4928 10.9558 12.8676 10.9558H13.7481C13.7481 10.6658 13.7505 10.3759 13.7552 10.086H12.8676C11.9728 10.086 11.2444 9.35755 11.2444 8.46279ZM10.8095 5.05248C11.1054 5.05248 11.3454 5.29251 11.3454 5.58839C11.3454 5.88426 11.1054 6.12429 10.8095 6.12429C10.5136 6.12429 10.2736 5.88426 10.2736 5.58839C10.2736 5.29251 10.5136 5.05248 10.8095 5.05248Z" fill="#FBB03B"/>
<path d="M6.89188 9.46805V9.12465C7.45512 8.94165 7.86269 8.41169 7.86269 7.78785C7.86269 7.01311 7.23173 6.38214 6.45698 6.38214C5.68224 6.38214 5.05127 7.01311 5.05127 7.78785C5.05127 8.4105 5.45884 8.94047 6.02208 9.12465V9.46805C6.02208 11.5012 7.67614 13.1564 9.71044 13.1564H13.7588V12.2866H9.71044C8.15619 12.2866 6.89188 11.0223 6.89188 9.46805ZM6.45698 7.25314C6.75286 7.25314 6.99289 7.49316 6.99289 7.78904C6.99289 8.08492 6.75286 8.32495 6.45698 8.32495C6.1611 8.32495 5.92108 8.08492 5.92108 7.78904C5.92108 7.49316 6.1611 7.25314 6.45698 7.25314Z" fill="#FBB03B"/>
<path d="M10.3746 20.5117V22.0505C9.81138 22.2335 9.40381 22.7635 9.40381 23.3873C9.40381 24.1621 10.0348 24.793 10.8095 24.793C11.5843 24.793 12.2152 24.1621 12.2152 23.3873C12.2152 22.7647 11.8077 22.2347 11.2444 22.0505V20.5117C11.2444 19.617 11.9728 18.8886 12.8676 18.8886H13.754C13.7505 18.6058 13.7493 18.317 13.7493 18.0188H12.8664C11.4916 18.0188 10.3734 19.1369 10.3734 20.5117H10.3746ZM10.8095 23.922C10.5136 23.922 10.2736 23.682 10.2736 23.3861C10.2736 23.0903 10.5136 22.8502 10.8095 22.8502C11.1054 22.8502 11.3454 23.0903 11.3454 23.3861C11.3454 23.682 11.1054 23.922 10.8095 23.922Z" fill="#FBB03B"/>
<path d="M6.02208 19.5065V19.8499C5.45884 20.0329 5.05127 20.5628 5.05127 21.1867C5.05127 21.9614 5.68224 22.5924 6.45698 22.5924C7.23173 22.5924 7.86269 21.9614 7.86269 21.1867C7.86269 20.564 7.45512 20.0341 6.89188 19.8499V19.5065C6.89188 17.9522 8.15619 16.6879 9.71044 16.6879H13.7577L13.76 15.8181H9.71044C7.67732 15.8181 6.02208 17.4722 6.02208 19.5065ZM6.45698 21.7214C6.1611 21.7214 5.92108 21.4814 5.92108 21.1855C5.92108 20.8896 6.1611 20.6496 6.45698 20.6496C6.75286 20.6496 6.99289 20.8896 6.99289 21.1855C6.99289 21.4814 6.75286 21.7214 6.45698 21.7214Z" fill="#FBB03B"/>
<path d="M11.1078 29.7101C11.3966 29.7101 11.6865 29.678 11.9693 29.6138C12.6763 29.4522 13.3358 29.1849 13.9109 28.7179C14.2127 28.4731 14.4706 28.1915 14.6869 27.8706C14.7273 27.81 14.7641 27.7601 14.8069 27.7601C14.8378 27.7601 14.871 27.7839 14.9126 27.8469C15.5579 28.8117 16.4752 29.3334 17.5529 29.5936C17.875 29.6709 18.2041 29.7101 18.5333 29.7101C18.8981 29.7101 19.264 29.6613 19.6181 29.5627C19.6205 29.5627 19.6241 29.5615 19.6265 29.5603C21.1415 29.1326 22.2311 28.2568 22.6482 26.6788C22.6862 26.535 22.7433 26.453 22.9061 26.4186C23.139 26.3699 23.2744 26.1952 23.2554 25.954C23.2364 25.7199 23.095 25.5642 22.8514 25.531C22.6898 25.5084 22.5258 25.4882 22.363 25.4846C22.3535 25.4846 22.3452 25.4846 22.3369 25.4846C21.9816 25.4846 21.8081 25.6545 21.7974 26.0193C21.782 26.5386 21.6085 26.9996 21.3043 27.4143C20.6602 28.2937 19.5801 28.7606 18.4976 28.7606C17.7466 28.7606 16.9933 28.5361 16.3825 28.0691C16.0225 27.7934 15.7824 27.425 15.5115 27.0745C15.3285 26.838 15.2786 26.6111 15.2822 26.3342C15.2905 25.6498 15.2881 24.9653 15.2834 24.2809C15.281 23.9161 15.1063 23.701 14.8235 23.6927C14.8188 23.6927 14.8128 23.6927 14.8081 23.6927C14.5241 23.6927 14.3411 23.9161 14.3387 24.2845C14.3339 24.9107 14.328 25.5381 14.3411 26.1643C14.3482 26.5267 14.2555 26.8214 14.0654 27.1506C13.4689 28.1891 12.2913 28.7547 11.0936 28.7547C10.2986 28.7547 9.49535 28.5052 8.84894 27.9788C7.75455 27.0876 7.52759 25.815 8.27858 24.6362C8.45206 24.3629 8.42117 24.1074 8.19421 23.9494C8.11103 23.8912 8.0231 23.8626 7.93636 23.8626C7.78782 23.8626 7.64048 23.9446 7.51571 24.105C7.25667 24.4389 7.0915 24.8204 7.00476 25.2279C6.95961 25.4383 6.85979 25.4965 6.67561 25.4965C6.66611 25.4965 6.65541 25.4965 6.64472 25.4965C6.08861 25.4799 5.58479 25.3135 5.12374 25.0081C4.13036 24.351 3.80359 23.133 4.40485 22.123C4.65913 21.6964 4.46901 21.3614 3.96876 21.3257C3.61822 21.3008 3.28313 21.2295 2.95755 21.1023C1.95466 20.7114 1.39855 19.8487 1.44964 18.8102C1.4841 18.1103 2.18518 17.0872 3.19401 16.985C3.46256 16.9577 3.62416 16.6998 3.58257 16.4633C3.54217 16.234 3.3366 16.0677 3.09301 16.0677C3.07043 16.0677 3.04785 16.0688 3.02409 16.0724C2.66642 16.1176 2.3242 16.2209 2.02001 16.417C1.95109 16.461 1.89405 16.4835 1.84177 16.4835C1.76929 16.4835 1.70631 16.4408 1.63264 16.3552C0.547755 15.0838 0.697476 13.217 1.96891 12.1357C2.4561 11.721 3.00983 11.4489 3.62297 11.279C4.07689 11.153 4.18027 10.8096 3.88677 10.446C3.84399 10.3937 3.79527 10.3462 3.75368 10.2939C3.19045 9.59164 2.92309 8.80739 3.06924 7.89955C3.13341 7.5003 3.30333 7.14857 3.48276 6.79566C3.61347 6.54018 3.54098 6.28709 3.32947 6.16113C3.25342 6.11598 3.17381 6.0934 3.09538 6.0934C2.94923 6.0934 2.80664 6.17182 2.69969 6.3263C2.59632 6.47602 2.50482 6.63762 2.43234 6.80517C1.91188 8.01363 1.99149 9.19119 2.64503 10.326C2.75554 10.5173 2.73891 10.5933 2.53215 10.6848C1.66353 11.0722 0.973153 11.6675 0.481213 12.4898C0.272079 12.8392 0.15563 13.2218 0.0391801 13.6044C0.0272975 14.0155 0.0106619 14.6358 -0.0012207 15.0469C0.18296 15.7991 0.487154 16.4907 1.01593 17.0682C1.09317 17.1525 1.11099 17.225 1.0397 17.3213C-0.181836 18.9848 0.682029 21.4208 2.9623 22.085C3.26887 22.1741 3.30927 22.2751 3.23679 22.5758C2.89695 23.9862 3.71209 25.4466 5.17009 26.0966C5.64183 26.3069 6.13377 26.4317 6.65066 26.4364C6.81702 26.4376 6.91564 26.4792 6.96198 26.6562C7.39094 28.2913 8.51742 29.1849 10.1014 29.5841L10.1097 29.5865C10.4365 29.6685 10.7704 29.7113 11.1054 29.7113L11.1078 29.7101Z" fill="#28336C"/>
<path d="M4.6033 5.62523C4.69598 5.62523 4.79936 5.60027 4.91106 5.54799C5.29843 5.36975 5.70006 5.24142 6.11952 5.16537C6.75761 5.04892 6.80752 4.99782 6.7695 4.35616C6.71602 3.43526 7.04517 2.66765 7.6999 2.04737C8.49366 1.29639 9.43001 0.94348 10.4757 0.94348C10.6468 0.94348 10.8203 0.952986 10.9961 0.971999C12.302 1.10984 13.3406 1.68614 14.0084 2.85301C14.0607 2.94451 14.1177 3.03838 14.1914 3.11087C14.2971 3.21425 14.334 3.32951 14.334 3.4721C14.3316 5.1214 14.3292 6.76952 14.3363 8.41882V9.92316C14.3245 10.6076 14.3245 11.292 14.3375 11.9765V13.5402C14.3233 14.1961 14.3185 14.8521 14.3399 15.5068L14.3351 17.0444C14.328 17.7193 14.3268 18.3943 14.3351 19.0692V20.5925C14.3245 20.9882 14.3316 21.3827 14.3328 21.7784C14.3328 21.8652 14.3304 21.9519 14.334 22.0387C14.3482 22.394 14.5276 22.6102 14.8045 22.6102C14.8081 22.6102 14.8116 22.6102 14.814 22.6102C15.0873 22.6055 15.262 22.3963 15.2786 22.0529C15.2834 21.9567 15.281 21.8604 15.281 21.7642C15.281 18.765 15.281 15.7658 15.281 12.7667C15.281 9.70927 15.281 6.65307 15.281 3.59568C15.281 3.4721 15.2358 3.32357 15.3273 3.23088C15.5674 2.98491 15.6886 2.66289 15.8977 2.39791C16.657 1.43661 17.869 0.941104 19.0846 0.941104C20.0911 0.941104 21.0987 1.28095 21.8521 1.97489C23.0296 3.06096 23.1841 4.8588 22.224 5.80941C22.0161 6.01616 22.0541 6.28114 22.243 6.45582C22.3345 6.54137 22.4415 6.58415 22.5508 6.58415C22.6744 6.58415 22.8015 6.52949 22.9156 6.41661C23.2019 6.13618 23.4135 5.80109 23.5465 5.42441C23.5953 5.28657 23.6559 5.22953 23.7592 5.22953C23.7973 5.22953 23.84 5.23785 23.8911 5.25211C24.6908 5.47907 25.3836 5.87119 25.9183 6.51761C26.1144 6.75526 26.2819 6.87171 26.4423 6.87171C26.5326 6.87171 26.6206 6.83369 26.7097 6.76001C26.9497 6.56157 26.9248 6.27401 26.6372 5.92348C25.9706 5.11308 25.1186 4.59619 24.105 4.34903C23.8876 4.29556 23.7806 4.21714 23.7806 3.9676C23.7818 3.60043 23.6927 3.24276 23.5632 2.89698C22.9203 1.17281 21.1439 0.00594323 19.0929 0.00594323C18.8636 0.00594323 18.6307 0.0202023 18.3954 0.0510971C16.9267 0.238842 15.7349 0.922092 14.915 2.18759C14.8722 2.25413 14.8378 2.28503 14.8057 2.28503C14.7701 2.28503 14.7368 2.24819 14.6964 2.18165C14.5205 1.89171 14.3066 1.63148 14.0654 1.39264C13.1505 0.490753 11.8719 0.00119019 10.5624 0.00119019C9.8661 0.00119019 9.16146 0.140217 8.49841 0.428964C6.92278 1.11697 5.94484 2.2874 5.82602 4.06504C5.81414 4.23734 5.73333 4.29556 5.5848 4.32883C5.21644 4.41201 4.86353 4.54034 4.52487 4.70789C4.20523 4.86593 4.09235 5.09764 4.20523 5.35193C4.28603 5.53254 4.42387 5.6276 4.60211 5.6276L4.6033 5.62523Z" fill="#28336C"/>
<path d="M26.5957 8.3998C26.5553 9.16029 26.2832 9.82096 25.7746 10.389C25.411 10.7965 25.5132 11.1364 26.036 11.2861C26.6468 11.4608 27.2064 11.7317 27.6794 12.163C28.3721 12.794 28.7548 13.5771 28.7144 14.5182C28.6775 15.3856 28.283 16.1057 27.6556 16.701C27.2801 17.0575 27.2754 17.2381 27.6223 17.6231C27.9788 18.0188 28.1844 18.4715 28.1678 19.0383C28.1737 19.2653 28.1404 19.51 28.0501 19.7501C27.6758 20.7375 26.5565 21.3245 25.5869 21.3245C25.1401 21.3245 24.7242 21.1997 24.4283 20.9324C24.3297 20.8433 24.2227 20.8029 24.1205 20.8029C23.9863 20.8029 23.8579 20.873 23.7652 20.9918C23.5941 21.2116 23.6369 21.46 23.89 21.6739C24.2144 21.9483 24.5935 22.1195 25.0058 22.1907C25.2327 22.23 25.3444 22.344 25.4074 22.5437C25.4538 22.691 25.4906 22.8384 25.5025 22.994C25.5714 23.8329 25.2137 24.4627 24.5638 24.9594C24.275 25.1792 24.2227 25.4299 24.3855 25.6557C24.477 25.784 24.6006 25.8518 24.7396 25.8518C24.8584 25.8518 24.9892 25.8031 25.1222 25.7032C26.0313 25.0188 26.5078 24.1217 26.4519 22.9655C26.44 22.7065 26.219 22.4046 26.3592 22.2216C26.4911 22.0493 26.8274 22.041 27.065 21.94C28.9829 21.1213 29.7054 18.986 28.5943 17.3581C28.4921 17.2084 28.5456 17.1264 28.6431 17.0111C29.4523 16.0522 29.8171 14.9519 29.5782 13.7078C29.3025 12.2712 28.4042 11.311 27.1114 10.6979C26.8951 10.5957 26.8428 10.5232 26.9771 10.3034C27.3205 9.74254 27.4952 9.12583 27.513 8.46516C27.5213 8.13363 27.349 7.90549 27.0734 7.89598C27.0674 7.89598 27.0615 7.89598 27.0555 7.89598C26.7989 7.89598 26.6111 8.09323 26.5945 8.40218L26.5957 8.3998Z" fill="#28336C"/>
<path d="M24.3212 14.328C24.3057 14.3269 24.2903 14.3257 24.2748 14.3257C24.0491 14.3257 23.8649 14.5051 23.8209 14.7831C23.6106 16.1223 22.9131 17.048 21.5763 17.4365C21.2531 17.5304 21.101 17.7752 21.1782 18.0342C21.24 18.241 21.4076 18.3539 21.6369 18.3539C21.6987 18.3539 21.7664 18.3456 21.8365 18.3277C23.4062 17.9439 24.648 16.4633 24.7466 14.8568C24.7632 14.5859 24.5767 14.3542 24.3212 14.3269V14.328Z" fill="#28336C"/>
<path d="M18.4335 5.52185C18.3385 5.47551 18.2446 5.45412 18.1567 5.45412C17.9309 5.45412 17.7479 5.59552 17.7099 5.8308C17.6659 6.10291 17.8275 6.26095 18.0497 6.37383C18.4644 6.58415 18.79 6.88953 19.0336 7.28404C19.3627 7.81638 19.4733 8.40575 19.4768 9.02246C19.4792 9.3623 19.6349 9.54411 19.9153 9.55124C19.92 9.55124 19.926 9.55124 19.9307 9.55124C20.1969 9.55124 20.3656 9.37775 20.3835 9.07831C20.431 8.27861 20.2599 7.52763 19.8583 6.83369C19.5196 6.25144 19.0372 5.81654 18.4347 5.52304L18.4335 5.52185Z" fill="#28336C"/>
<path d="M20.3418 21.9602C20.2645 21.7844 20.1255 21.6929 19.9449 21.6929C19.851 21.6929 19.7464 21.7178 19.6324 21.7665C19.2866 21.9186 18.9634 22.11 18.6758 22.3547C18.0567 22.8811 17.6646 23.5335 17.5755 24.3653C17.5672 24.6231 17.7347 24.8406 17.9759 24.8715C17.9985 24.8738 18.0211 24.8762 18.0437 24.8762C18.2647 24.8762 18.4489 24.7336 18.494 24.4793C18.5665 24.073 18.6996 23.6998 18.9646 23.379C19.2533 23.0285 19.6241 22.7956 20.0304 22.6055C20.3501 22.4569 20.4558 22.224 20.3406 21.9614L20.3418 21.9602Z" fill="#28336C"/>
<path d="M17.692 14.8093C17.6825 15.2418 17.8536 15.483 18.1507 15.4925C18.1566 15.4925 18.1626 15.4925 18.1697 15.4925C18.4561 15.4925 18.6284 15.2691 18.6379 14.8746C18.651 14.3245 18.8625 13.8955 19.3544 13.6127C19.6455 13.4452 19.7228 13.1683 19.5778 12.9342C19.4911 12.7952 19.3603 12.7215 19.2071 12.7215C19.1108 12.7215 19.0051 12.75 18.8945 12.8094C18.0877 13.2467 17.7562 13.9668 17.692 14.8093Z" fill="#28336C"/>
<path d="M10.8097 3.10016C11.1181 3.10016 11.3682 2.85012 11.3682 2.54168C11.3682 2.23324 11.1181 1.9832 10.8097 1.9832C10.5013 1.9832 10.2512 2.23324 10.2512 2.54168C10.2512 2.85012 10.5013 3.10016 10.8097 3.10016Z" fill="#CCCCCC"/>
<path d="M8.62562 15.0458C8.93406 15.0458 9.1841 14.7957 9.1841 14.4873C9.1841 14.1788 8.93406 13.9288 8.62562 13.9288C8.31718 13.9288 8.06714 14.1788 8.06714 14.4873C8.06714 14.7957 8.31718 15.0458 8.62562 15.0458Z" fill="#CCCCCC"/>
<path d="M5.67396 15.0458C5.9824 15.0458 6.23244 14.7957 6.23244 14.4873C6.23244 14.1788 5.9824 13.9288 5.67396 13.9288C5.36552 13.9288 5.11548 14.1788 5.11548 14.4873C5.11548 14.7957 5.36552 15.0458 5.67396 15.0458Z" fill="#CCCCCC"/>
<path d="M10.8097 26.9973C11.1181 26.9973 11.3682 26.7472 11.3682 26.4388C11.3682 26.1304 11.1181 25.8803 10.8097 25.8803C10.5013 25.8803 10.2512 26.1304 10.2512 26.4388C10.2512 26.7472 10.5013 26.9973 10.8097 26.9973Z" fill="#CCCCCC"/>
</g>
<defs>
<clipPath id="clip0_8732_1126">
<rect width="29.653" height="30" fill="white"/>
</clipPath>
</defs>
</svg>
